# xmcd
#
# Track frame offsets:
#	150
#	20222
#	38882
#	56077
#	75489
#	91248
#	109653
#	128758
#	147768
#	167851
#	186516
#	203716
#	223153
#	238903
#	257300
#	276280
#	306720
#
# Disc length: 4102 seconds
#
# Revision: 1
# Processed by: cddbd v1.5.2PL0 Copyright (c) Steve Scherf et al.
# Submitted via: audiograbber 1.83.01
#
DISCID=00100411
DTITLE=SC2355 - Sound Choice SC2355 Jessica andrews and Sara Evans vol 1
DYEAR=2004
DGENRE=Karaoke
TTITLE0=Sara Evans - I Could Not Ask For More (radio vers)
TTITLE1=Sara Evans - Born To Fly (radio vers)
TTITLE2=Sara Evans - No Place That Far
TTITLE3=Jessica Andrews - Who I Am
TTITLE4=Jessica Andrews - You Go First
TTITLE5=Jessica Andrews - Helplessly, Hopelessly
TTITLE6=Sara Evans - Saints and Angels (radio vers)
TTITLE7=Jessica Andrews - Unbreakable Heart (radio vers)
TTITLE8=Sara Evans - I Could Not Ask For More (radio vers) (vocals)
TTITLE9=Sara Evans - Born To Fly (radio vers) (vocals)
TTITLE10=Sara Evans - No Place That Far (vocals)
TTITLE11=Jessica Andrews - Who I Am (vocals)
TTITLE12=Jessica Andrews - You Go First (vocals)
TTITLE13=Jessica Andrews - Helplessly, Hopelessly (vocals)
TTITLE14=Sara Evans - Saints and Angels (radio vers) (vocals)
TTITLE15=Jessica Andrews - Unbreakable Heart (radio vers) (vocals)
TTITLE16=Data Track - Data Track
EXTD=
EXTT0=
EXTT1=
EXTT2=
EXTT3=
EXTT4=
EXTT5=
EXTT6=
EXTT7=
EXTT8=
EXTT9=
EXTT10=
EXTT11=
EXTT12=
EXTT13=
EXTT14=
EXTT15=
EXTT16=
PLAYORDER=
